<svg xmlns="http://www.w3.org/2000/svg" viewBox="0 0 512 512" width="512" height="512">
  <path fill="#FFFFFF" d="M258.48 16.01c-8.72 0-17.41 1.23-25.82 3.6L7.29 78.6c-17.6 5.62-17.8 30.96-.32 36.47l204.76 64.37c-25.65 43.95-40.28 95.38-40.28 150.05 0 106.05 86.05 192.01 192 192.01 41.2 0 79.65-12.8 111.36-34.84l62.42 207.76c3.58 11.93 18.65 14.9 25.72 4.6l37.16-54.44c14.17-20.78 22.24-45.6 22.24-72 0-82.14-66.86-148.99-149-148.99-35.51 0-68.16 12.49-93.6 33.34-18.56-11.88-39.92-18.7-62.4-18.7-73.12 0-132.8 59.7-132.8 132.8 0 36.28 14.49 69.46 38.03 93.6l-48.8 72c-5.75 8.44-3.12 20.07 5.36 25.16l149.24 89.28c5.74 3.44 12.8 3.44 18.54 0l149.24-89.28c8.48-5.1 11.1-16.72 5.36-25.16l-48.8-72c23.54-24.14 38.03-57.32 38.03-93.6 0-73.1-59.68-132.8-132.8-132.8-22.48 0-43.84 6.82-62.4 18.7-25.44-20.85-58.09-33.34-93.6-33.34-82.15 0-149.01 66.85-149.01 148.99 0 26.4 7.1 51.22 22.27 72.02l37.14 54.44c7.08 10.3 22.13 7.33 25.72-4.6l62.4-207.76C173.83 3.22 216.77 0 258.48 0c12.96 0 25.89 1.22 38.48 3.6zM400 330.4c0 82.14-66.86 149-149 149s-149-66.86-149-149c0-27.4 7.64-53.5 20.96-76L132.89 280.5c-12.98 6.8-22.88 17.38-28.27 30.4L41.43 397.2l10.47 3.06c29.46 8.6 60.36 13.4 92.58 13.4 132.48 0 240-107.52 240-240 0-31.98-6.26-62.68-17.46-91.38l-2.88-10.47-86.68-62.66c-10.02-7.22-20.6-15.24-31.24-23.96l27.6-41c31.4 24.56 68.96 39.4 109.28 39.4 106.05 0 192 85.96 192 192z"/>
</svg>
